<svg width="216" height="200" viewBox="0 0 216 200" fill="none" xmlns="http://www.w3.org/2000/svg">
<path fill-rule="evenodd" clip-rule="evenodd" d="M57.5051 0.254808C39.8814 2.42826 24.4212 11.6218 13.6627 26.3263C8.19678 33.797 4.31808 42.1764 2.04083 51.4334C0.364404 58.2484 -0.002187 61.6285 9.78963e-06 70.2621C0.00193198 78.7695 0.261428 81.5498 1.7849 89.3841C8.44475 123.631 31.257 154.711 67.528 178.954C76.4574 184.922 87.3707 191.151 97.4741 196.045C105.686 200.023 105.655 200.012 108.031 199.999C109.937 199.988 110.327 199.877 113.249 198.509C166.149 173.748 199.919 139.591 211.694 98.9365C217.387 79.281 217.359 60.3903 211.614 44.3035C202.828 19.7019 182.062 2.79128 157.476 0.216913C153.251 -0.225466 145.905 0.0329321 141.67 0.772701C129.912 2.82697 119.085 8.17176 110.25 16.2831C107.627 18.6914 108.264 18.7565 105.002 15.7468C102.808 13.7231 98.2056 10.3447 95.313 8.63529C88.6707 4.7099 81.6245 2.08748 74.2131 0.782313C70.3651 0.104603 61.0955 -0.18812 57.5051 0.254808ZM71.9215 15.4665C79.9687 16.8837 88.4101 21.0068 94.8505 26.6657C98.5779 29.9406 98.4135 29.5166 96.809 31.7211C93.1176 36.7921 89.0573 44.2906 87.0176 49.8045C85.7479 53.2373 84.2689 58.9569 83.8581 62.0242C83.4588 65.0052 83.4563 71.2196 83.8534 73.6523C84.9186 80.1784 88.3585 86.0925 93.2774 89.8547C97.3357 92.9585 101.742 94.6146 106.658 94.8848C117.239 95.4659 126.975 88.8135 130.662 78.4839C132.014 74.6958 132.286 72.5017 132.13 66.6462C132.022 62.5937 131.858 60.9941 131.289 58.4415C129.246 49.2778 125.125 40.2924 119.144 31.9556L117.607 29.8134L118.929 28.4679C120.71 26.6545 125.274 23.1239 127.805 21.6007C137.023 16.0536 147.239 13.8532 157.519 15.2007C175.268 17.5273 190.436 30.2122 197.303 48.4724C201.228 58.9116 202.098 71.0365 199.863 84.1823C195.676 108.811 181.383 132.581 159.107 151.965C153.601 156.756 150.629 159.092 143.866 163.947C135.507 169.949 118.989 179.503 109.781 183.662L107.823 184.546L102.778 182.072C72.7283 167.336 49.4193 148.703 34.193 127.245C26.2157 116.003 20.3824 103.411 17.2896 90.7584C15.4091 83.0664 14.8031 77.9863 14.8113 69.9875C14.8185 63.0984 15.1493 60.3738 16.7302 54.1813C20.5208 39.3335 30.1326 26.8275 42.9514 20.0646C47.5594 17.6336 53.2093 15.8537 58.7424 15.0895C61.3888 14.724 68.9303 14.9395 71.9215 15.4665ZM109.635 44.5262C114.535 52.6823 117.015 59.8658 117.29 66.6984C117.507 72.0709 116.869 74.4171 114.464 77.0917C112.159 79.655 108.652 80.64 105.375 79.6446C102.305 78.7121 100.138 76.4639 98.9574 72.9853C98.4159 71.3904 98.3725 70.8322 98.4989 67.1042C98.6502 62.6404 99.2101 59.8839 100.915 55.2092C102.537 50.7642 107.436 41.7475 108.03 42.1146C108.166 42.1992 108.889 43.2844 109.635 44.5262Z" fill="#D3564A"/>
</svg>
