<svg width="102" height="107" viewBox="0 0 102 107" fill="none" xmlns="http://www.w3.org/2000/svg">
<path d="M49.3075 98.1163C56.3188 98.1163 63.2505 96.6043 69.5864 93.714L69.1952 103.043L69.1948 103.054V103.064V103.064V103.065V103.065V103.065V103.065V103.065V103.065V103.065V103.065V103.066V103.066V103.066V103.066V103.066V103.066V103.066V103.066V103.067V103.067V103.067V103.067V103.067V103.067V103.067V103.067V103.068V103.068V103.068V103.068V103.068V103.068V103.068V103.068V103.069V103.069V103.069V103.069V103.069V103.069V103.069V103.069V103.07V103.07V103.07V103.07V103.07V103.07V103.07V103.07V103.071V103.071V103.071V103.071V103.071V103.071V103.071V103.071V103.072V103.072V103.072V103.072V103.072V103.072V103.072V103.072V103.073V103.073V103.073V103.073V103.073V103.073V103.073V103.073V103.073V103.074V103.074V103.074V103.074V103.074V103.074V103.074V103.074V103.075V103.075V103.075V103.075V103.075V103.075V103.075V103.075V103.076V103.076V103.076V103.076V103.076V103.076V103.076V103.076V103.077V103.077V103.077V103.077V103.077V103.077V103.077V103.077V103.078V103.078V103.078V103.078V103.078V103.078V103.078V103.078V103.079V103.079V103.079V103.079V103.079V103.079V103.079V103.079V103.08V103.08V103.08V103.08V103.08V103.08V103.08V103.08V103.081V103.081V103.081V103.081V103.081V103.081V103.081V103.081V103.082V103.082V103.082V103.082V103.082V103.082V103.082V103.082V103.083V103.083V103.083V103.083V103.083V103.083V103.083V103.083V103.084V103.084V103.084V103.084V103.084V103.084V103.084V103.084V103.085V103.085V103.085V103.085V103.085V103.085V103.085V103.085V103.086V103.086V103.086V103.086V103.086V103.086V103.086V103.086V103.087V103.087V103.087V103.087V103.087V103.087V103.087V103.087V103.088V103.088V103.088V103.088V103.088V103.088V103.088V103.088V103.089V103.089V103.089V103.089V103.089V103.089V103.089V103.089V103.09V103.09V103.09V103.09V103.09V103.09V103.09V103.09V103.091V103.091V103.091V103.091V103.091V103.091V103.091V103.091V103.092V103.092V103.092V103.092V103.092V103.092V103.092V103.092V103.093V103.093V103.093V103.093V103.093V103.093V103.093V103.093V103.094V103.094V103.094V103.094V103.094V103.094V103.094V103.094V103.095V103.095V103.095V103.095V103.095V103.095V103.095V103.095V103.096V103.096V103.096V103.096V103.096V103.096V103.096V103.096V103.097V103.097V103.097V103.097V103.097V103.097V103.097V103.097V103.098V103.098V103.098V103.098V103.098V103.098V103.098V103.098V103.099V103.099V103.099V103.099V103.099V103.099V103.099V103.099V103.1V103.1V103.1V103.1V103.1V103.1V103.1V103.1V103.101V103.101V103.101V103.101V103.101V103.101V103.101V103.101V103.102V103.102V103.102V103.102V103.102V103.102V103.102V103.102V103.103V103.103V103.103V103.103V103.103V103.103V103.103V103.103V103.104V103.104V103.104V103.104V103.104V103.104V103.104V103.104V103.105V103.105V103.105V103.105V103.105V103.105V103.105V103.105V103.106V103.106V103.106V103.106V103.106V103.106V103.106V103.106V103.107V103.107V103.107V103.107V103.107V103.107V103.107V103.107V103.108V103.108V103.108V103.108V103.108V103.108V103.108V103.108V103.109V103.109V103.109V103.109V103.109V103.109V103.109V103.109V103.11V103.11V103.11V103.11V103.11V103.11V103.11V103.11V103.111V103.111V103.111V103.111V103.111V103.111V103.111V103.111V103.112V103.112V103.112V103.112V103.112V103.112V103.112V103.112V103.113V103.113V103.113V103.113V103.113V103.113V103.113V103.113V103.114V103.114V103.114V103.114V103.114V103.114V103.114V103.114V103.115V103.115V103.115V103.115V103.115V103.115V103.115V103.115V103.116V103.116V103.116V103.116V103.116V103.116V103.116V103.116V103.117V103.117V103.117V103.117V103.117V103.117V103.117V103.117V103.118V103.118V103.118V103.118V103.118V103.118V103.118V103.118V103.119V103.119V103.119V103.119V103.119V103.119V103.119V103.119V103.119V103.12V103.12V103.12V103.12V103.12V103.12V103.12V103.12V103.121V103.121V103.121V103.121V103.121V103.121V103.121V103.121V103.122V103.122V103.122V103.122V103.122V103.122V103.122V103.122V103.123V103.123V103.123V103.123V103.123V103.123V103.123V103.123V103.124V103.124V103.124V103.124V103.124V103.124V103.124V103.124V103.125V103.125V103.125V103.125V103.125V103.125V103.125V103.125V103.126V103.126V103.126V103.126V103.126V103.126V103.126V103.126V103.127V103.127V103.127V103.127V103.127V103.127V103.127V103.127V103.128V103.128V103.128V103.128V103.128C69.1948 104.146 69.791 105.115 70.7212 105.541L70.726 105.543C71.6729 105.964 72.7267 105.8 73.5275 105.129L73.5328 105.124L82.506 97.3828L91.4793 105.124L91.4838 105.128C91.9679 105.536 92.5689 105.778 93.1892 105.778C93.5579 105.778 93.9268 105.699 94.2696 105.541C95.1973 105.117 95.796 104.17 95.796 103.128V103.128V103.128V103.128V103.128V103.127V103.127V103.127V103.127V103.127V103.127V103.127V103.127V103.126V103.126V103.126V103.126V103.126V103.126V103.126V103.126V103.125V103.125V103.125V103.125V103.125V103.125V103.125V103.125V103.124V103.124V103.124V103.124V103.124V103.124V103.124V103.124V103.123V103.123V103.123V103.123V103.123V103.123V103.123V103.123V103.122V103.122V103.122V103.122V103.122V103.122V103.122V103.122V103.121V103.121V103.121V103.121V103.121V103.121V103.121V103.121V103.12V103.12V103.12V103.12V103.12V103.12V103.12V103.12V103.119V103.119V103.119V103.119V103.119V103.119V103.119V103.119V103.119V103.118V103.118V103.118V103.118V103.118V103.118V103.118V103.118V103.117V103.117V103.117V103.117V103.117V103.117V103.117V103.117V103.116V103.116V103.116V103.116V103.116V103.116V103.116V103.116V103.115V103.115V103.115V103.115V103.115V103.115V103.115V103.115V103.114V103.114V103.114V103.114V103.114V103.114V103.114V103.114V103.113V103.113V103.113V103.113V103.113V103.113V103.113V103.113V103.112V103.112V103.112V103.112V103.112V103.112V103.112V103.112V103.111V103.111V103.111V103.111V103.111V103.111V103.111V103.111V103.11V103.11V103.11V103.11V103.11V103.11V103.11V103.11V103.109V103.109V103.109V103.109V103.109V103.109V103.109V103.109V103.108V103.108V103.108V103.108V103.108V103.108V103.108V103.108V103.107V103.107V103.107V103.107V103.107V103.107V103.107V103.107V103.106V103.106V103.106V103.106V103.106V103.106V103.106V103.106V103.105V103.105V103.105V103.105V103.105V103.105V103.105V103.105V103.104V103.104V103.104V103.104V103.104V103.104V103.104V103.104V103.103V103.103V103.103V103.103V103.103V103.103V103.103V103.103V103.102V103.102V103.102V103.102V103.102V103.102V103.102V103.102V103.101V103.101V103.101V103.101V103.101V103.101V103.101V103.101V103.1V103.1V103.1V103.1V103.1V103.1V103.1V103.1V103.099V103.099V103.099V103.099V103.099V103.099V103.099V103.099V103.098V103.098V103.098V103.098V103.098V103.098V103.098V103.098V103.097V103.097V103.097V103.097V103.097V103.097V103.097V103.097V103.096V103.096V103.096V103.096V103.096V103.096V103.096V103.096V103.095V103.095V103.095V103.095V103.095V103.095V103.095V103.095V103.094V103.094V103.094V103.094V103.094V103.094V103.094V103.094V103.093V103.093V103.093V103.093V103.093V103.093V103.093V103.093V103.092V103.092V103.092V103.092V103.092V103.092V103.092V103.092V103.091V103.091V103.091V103.091V103.091V103.091V103.091V103.091V103.09V103.09V103.09V103.09V103.09V103.09V103.09V103.09V103.089V103.089V103.089V103.089V103.089V103.089V103.089V103.089V103.088V103.088V103.088V103.088V103.088V103.088V103.088V103.088V103.087V103.087V103.087V103.087V103.087V103.087V103.087V103.087V103.086V103.086V103.086V103.086V103.086V103.086V103.086V103.086V103.085V103.085V103.085V103.085V103.085V103.085V103.085V103.085V103.084V103.084V103.084V103.084V103.084V103.084V103.084V103.084V103.083V103.083V103.083V103.083V103.083V103.083V103.083V103.083V103.082V103.082V103.082V103.082V103.082V103.082V103.082V103.082V103.081V103.081V103.081V103.081V103.081V103.081V103.081V103.081V103.08V103.08V103.08V103.08V103.08V103.08V103.08V103.08V103.079V103.079V103.079V103.079V103.079V103.079V103.079V103.079V103.078V103.078V103.078V103.078V103.078V103.078V103.078V103.078V103.077V103.077V103.077V103.077V103.077V103.077V103.077V103.077V103.076V103.076V103.076V103.076V103.076V103.076V103.076V103.076V103.075V103.075V103.075V103.075V103.075V103.075V103.075V103.075V103.074V103.074V103.074V103.074V103.074V103.074V103.074V103.074V103.073V103.073V103.073V103.073V103.073V103.073V103.073V103.073V103.073V103.072V103.072V103.072V103.072V103.072V103.072V103.072V103.072V103.071V103.071V103.071V103.071V103.071V103.071V103.071V103.071V103.07V103.07V103.07V103.07V103.07V103.07V103.07V103.07V103.069V103.069V103.069V103.069V103.069V103.069V103.069V103.069V103.068V103.068V103.068V103.068V103.068V103.068V103.068V103.068V103.067V103.067V103.067V103.067V103.067V103.067V103.067V103.067V103.066V103.066V103.066V103.066V103.066V103.066V103.066V103.066V103.065V103.065V103.065V103.065V103.065V103.065V103.065V103.065V103.064V103.064V103.054L95.7956 103.043L94.9331 82.324C98.9545 78.8307 101.499 73.6979 101.499 67.9504C101.499 63.6132 100.043 59.6125 97.5884 56.4064C97.9333 54.0675 98.1156 51.6883 98.1156 49.3082C98.1156 36.2792 93.0406 24.0217 83.8172 14.7984C74.5939 5.57504 62.3365 0.5 49.3075 0.5C36.2785 0.5 24.0211 5.57504 14.7977 14.7984C5.57437 24.0217 0.499329 36.2792 0.499329 49.3082C0.499329 62.3371 5.57437 74.5946 14.7977 83.8179C24.0211 93.0413 36.2785 98.1163 49.3075 98.1163ZM63.4915 67.9717C63.4915 71.1395 64.2726 74.1268 65.6529 76.7503H56.4685V65.9287H56.4686L56.4683 65.9156C56.4402 64.8483 55.5707 63.939 54.4575 63.939H43.4977C42.3916 63.939 41.5081 64.8226 41.5081 65.9287V76.7503H34.2723V27.463H64.3427V62.3405C63.7889 64.1132 63.4915 66.0113 63.4915 67.9717ZM49.3075 94.1369C24.5996 94.1369 4.47869 74.016 4.47869 49.3082C4.47869 24.6003 24.5996 4.47936 49.3075 4.47936C74.0154 4.47936 94.1363 24.6003 94.1363 49.3082C94.1363 50.4699 94.0838 51.647 93.9993 52.8198C90.8112 50.4011 86.8177 48.9571 82.506 48.9571C76.8684 48.9571 71.8024 51.425 68.3221 55.3269V25.4733C68.3221 24.3672 67.4385 23.4836 66.3324 23.4836H63.1082V19.8764C63.1082 18.7703 62.2246 17.8867 61.1185 17.8867H37.4965C36.3904 17.8867 35.5068 18.7703 35.5068 19.8764V23.4836H32.2826C31.1765 23.4836 30.2929 24.3672 30.2929 25.4733V78.7399C30.2929 79.846 31.1765 80.7296 32.2826 80.7296H68.4272C68.9415 81.3019 69.4851 81.8293 70.0573 82.3242L69.761 89.1977C63.4707 92.4363 56.4302 94.1369 49.3075 94.1369ZM45.4874 76.7503V67.9184H52.4678V76.7503H45.4874ZM59.1288 23.4836H39.5074V21.866H59.1288V23.4836ZM80.7456 93.6694L73.3077 100.08L73.9487 84.9407C76.5326 86.2543 79.4484 86.9863 82.5273 86.9863C85.6059 86.9863 88.5213 86.2545 91.105 84.9412L91.7271 100.081L84.2865 93.6685C84.2853 93.6674 84.2841 93.6663 84.2829 93.6652C83.7991 93.2337 83.1954 92.9665 82.506 92.9665C81.8211 92.9665 81.2141 93.2307 80.7456 93.6694ZM82.506 83.0069C74.2059 83.0069 67.4708 76.2719 67.4708 67.9717C67.4708 59.6715 74.2059 52.9365 82.506 52.9365C90.8062 52.9365 97.5413 59.6715 97.5413 67.9717C97.5413 76.2718 90.8062 83.0069 82.506 83.0069Z" fill="#D3564A" stroke="#D3564A"/>
<path d="M75.278 71.3091C76.6508 72.1018 77.7907 73.2418 78.5834 74.6145C78.7993 74.9893 79.1063 75.3034 79.476 75.5277C79.8457 75.752 80.266 75.8793 80.6981 75.8977H80.811C81.2243 75.8976 81.6314 75.7977 81.9978 75.6065C82.3642 75.4152 82.679 75.1383 82.9154 74.7993C85.116 71.6301 87.866 68.8802 91.0352 66.6795C91.3122 66.4867 91.5486 66.2413 91.7307 65.9572C91.9129 65.6731 92.0373 65.3559 92.0969 65.0237C92.1565 64.6915 92.15 64.3508 92.0779 64.0211C92.0059 63.6914 91.8695 63.3791 91.6768 63.1021C91.484 62.825 91.2386 62.5887 90.9544 62.4065C90.6703 62.2244 90.3531 62.0999 90.0209 62.0404C89.6887 61.9808 89.348 61.9872 89.0183 62.0593C88.6886 62.1314 88.3764 62.2677 88.0993 62.4605C85.3811 64.3427 82.9236 66.5759 80.7905 69.1021C79.9096 68.2186 78.9155 67.4557 77.8341 66.8335C77.2449 66.4985 76.5473 66.4102 75.8933 66.5878C75.2392 66.7653 74.682 67.1944 74.3432 67.7812C74.0043 68.3681 73.9114 69.0652 74.0846 69.7204C74.2578 70.3755 74.6831 70.9356 75.2678 71.2783L75.278 71.3091Z" fill="#E5AC5B"/>
</svg>
