<svg width="28" height="30" viewBox="0 0 28 30" fill="none" xmlns="http://www.w3.org/2000/svg">
<path fill-rule="evenodd" clip-rule="evenodd" d="M11.5743 15.9866V15.987V15.9877V15.9885V15.9891V15.9898V15.9905V15.9912V15.992V15.9927V15.9934V15.9942V15.9948V15.9955V15.9962V15.9969V16.4728C10.3495 17.6215 8.91513 18.5485 7.33493 19.1898C5.73947 19.8373 3.99538 20.194 2.16854 20.194C1.56977 20.194 1.02762 19.9512 0.635179 19.5586C0.242744 19.166 0 18.6236 0 18.0245C0 17.4255 0.242744 16.8831 0.635179 16.4904C1.02762 16.0978 1.56977 15.855 2.16854 15.855C2.56064 15.855 2.92935 15.96 3.24815 16.1436C3.56689 16.3271 3.83444 16.589 4.02439 16.9027L4.02686 16.9066C4.3015 17.3185 4.67512 17.6592 5.11363 17.8946C5.53678 18.1217 6.0213 18.2506 6.53662 18.2506C6.60288 18.2506 6.66411 18.2489 6.7202 18.2455C6.7785 18.242 6.83965 18.2363 6.90321 18.2286L6.91387 18.2276C7.78202 18.1133 8.6071 17.8632 9.36712 17.4995C10.151 17.1243 10.8665 16.6276 11.4893 16.0336L11.4905 16.0325V16.0324L11.4917 16.0314V16.0312L11.574 15.9534V15.9872L11.5743 15.9866Z" fill="white"/>
<path fill-rule="evenodd" clip-rule="evenodd" d="M11.5742 16.0289V16.4723C11.6318 16.4184 11.6889 16.3639 11.7455 16.3089L11.7487 16.3059C11.7636 16.2917 11.9059 16.152 11.9072 16.1504L12.0383 16.0161C13.2642 14.753 14.25 13.2561 14.922 11.5988C15.5692 10.0026 15.9257 8.25782 15.9257 6.43015V4.16391H15.9245L15.9245 0.188012C15.9245 0.0841929 15.8403 0 15.7366 0C15.6847 0 15.6377 0.0210628 15.6037 0.0550842V0.0546005L12.6497 3.00994C12.2937 3.36614 12.025 3.76294 11.8448 4.19838C11.6647 4.63325 11.5743 5.10354 11.5743 5.60723V15.9867V16.0289L11.5742 16.0289Z" fill="white"/>
<path fill-rule="evenodd" clip-rule="evenodd" d="M15.9258 14.0133V14.0131V14.0124V14.0117V14.011V14.0103V14.0096V14.0089V14.0081V14.0074V14.0067V14.006V14.0054V14.0046V14.0039V14.0032V13.5273C17.1505 12.3786 18.5849 11.4516 20.1651 10.8103C21.7605 10.1628 23.5046 9.80608 25.3315 9.80608C25.9303 9.80608 26.4724 10.0489 26.8649 10.4415C27.2573 10.8341 27.5 11.3765 27.5 11.9756C27.5 12.5746 27.2573 13.1171 26.8649 13.5097C26.4724 13.9023 25.9303 14.1451 25.3315 14.1451C24.9394 14.1451 24.5707 14.0401 24.2519 13.8565C23.9331 13.673 23.6656 13.4111 23.4756 13.0974L23.4732 13.0935C23.1986 12.6816 22.825 12.3409 22.3864 12.1055C21.9633 11.8784 21.4788 11.7495 20.9634 11.7495C20.8972 11.7495 20.836 11.7512 20.7799 11.7546C20.7216 11.7581 20.6604 11.7639 20.5969 11.7715L20.5862 11.7725C19.7181 11.8869 18.893 12.1369 18.133 12.5006C17.3491 12.8758 16.6336 13.3725 16.0108 13.9665L16.0096 13.9676V13.9677L16.0084 13.9687V13.9689L15.9261 14.0467V14.0129L15.9258 14.0133Z" fill="white"/>
<path fill-rule="evenodd" clip-rule="evenodd" d="M15.9257 13.9711V13.5277C15.8682 13.5816 15.811 13.6361 15.7544 13.6911L15.7513 13.6941C15.7363 13.7083 15.594 13.848 15.5927 13.8496L15.4616 13.9839C14.2358 15.247 13.2499 16.7439 12.578 18.4012C11.9308 19.9974 11.5742 21.7422 11.5742 23.5698V25.8361H11.5754L11.5755 29.812C11.5755 29.9158 11.6596 30 11.7634 30C11.8152 30 11.8622 29.979 11.8963 29.9449V29.9454L14.8502 26.9901C15.2063 26.6339 15.4749 26.2371 15.6552 25.8016C15.8352 25.3668 15.9256 24.8965 15.9256 24.3928V14.0133V13.9711L15.9257 13.9711Z" fill="white"/>
</svg>
