<svg width="87" height="30" viewBox="0 0 87 30" fill="none" xmlns="http://www.w3.org/2000/svg">
<path fill-rule="evenodd" clip-rule="evenodd" d="M11.5743 15.9866V15.987V15.9877V15.9885V15.9891V15.9898V15.9905V15.9912V15.992V15.9927V15.9934V15.9941V15.9947V15.9955V15.9962V15.9969V16.4728C10.3495 17.6215 8.91513 18.5485 7.33493 19.1898C5.73947 19.8373 3.99538 20.194 2.16854 20.194C1.56977 20.194 1.02762 19.9512 0.635179 19.5586C0.242744 19.166 0 18.6236 0 18.0245C0 17.4255 0.242744 16.883 0.635179 16.4904C1.02762 16.0978 1.56977 15.855 2.16854 15.855C2.56064 15.855 2.92935 15.96 3.24815 16.1436C3.56689 16.3271 3.83444 16.589 4.02439 16.9027L4.02686 16.9066C4.3015 17.3185 4.67512 17.6592 5.11363 17.8946C5.53678 18.1217 6.0213 18.2506 6.53662 18.2506C6.60288 18.2506 6.66411 18.2489 6.7202 18.2455C6.7785 18.242 6.83965 18.2362 6.90321 18.2286L6.91387 18.2276C7.78202 18.1133 8.6071 17.8632 9.36712 17.4995C10.151 17.1243 10.8665 16.6276 11.4893 16.0336L11.4905 16.0325V16.0324L11.4917 16.0314V16.0312L11.574 15.9534V15.9872L11.5743 15.9866Z" fill="#120BD9"/>
<path fill-rule="evenodd" clip-rule="evenodd" d="M11.5742 16.0289V16.4723C11.6318 16.4184 11.6889 16.3639 11.7455 16.3089L11.7487 16.3059C11.7636 16.2917 11.9059 16.152 11.9072 16.1504L12.0383 16.0161C13.2642 14.753 14.25 13.2561 14.922 11.5988C15.5692 10.0026 15.9257 8.25782 15.9257 6.43015V4.16391H15.9245L15.9245 0.188012C15.9245 0.0841929 15.8403 0 15.7366 0C15.6847 0 15.6377 0.0210628 15.6037 0.0550842V0.0546005L12.6497 3.00994C12.2937 3.36614 12.025 3.76294 11.8448 4.19838C11.6647 4.63325 11.5743 5.10354 11.5743 5.60723V15.9867V16.0289L11.5742 16.0289Z" fill="#F85D24"/>
<path fill-rule="evenodd" clip-rule="evenodd" d="M15.9258 14.0134V14.0131V14.0124V14.0117V14.0111V14.0103V14.0096V14.0089V14.0082V14.0074V14.0067V14.006V14.0054V14.0046V14.0039V14.0032V13.5273C17.1505 12.3786 18.5849 11.4516 20.1651 10.8103C21.7605 10.1628 23.5046 9.80608 25.3315 9.80608C25.9303 9.80608 26.4724 10.0489 26.8649 10.4415C27.2573 10.8341 27.5 11.3765 27.5 11.9756C27.5 12.5746 27.2573 13.1171 26.8649 13.5097C26.4724 13.9023 25.9303 14.1451 25.3315 14.1451C24.9394 14.1451 24.5707 14.0401 24.2519 13.8565C23.9331 13.6731 23.6656 13.4111 23.4756 13.0974L23.4732 13.0935C23.1986 12.6816 22.825 12.3409 22.3864 12.1055C21.9633 11.8784 21.4788 11.7495 20.9634 11.7495C20.8972 11.7495 20.836 11.7512 20.7799 11.7546C20.7216 11.7581 20.6604 11.7639 20.5969 11.7715L20.5862 11.7725C19.7181 11.8869 18.893 12.1369 18.133 12.5006C17.3491 12.8758 16.6336 13.3725 16.0108 13.9665L16.0096 13.9676V13.9677L16.0084 13.9687V13.9689L15.9261 14.0467V14.0129L15.9258 14.0134Z" fill="#120BD9"/>
<path fill-rule="evenodd" clip-rule="evenodd" d="M15.9257 13.9711V13.5277C15.8682 13.5816 15.811 13.6361 15.7544 13.6911L15.7513 13.6941C15.7363 13.7083 15.594 13.848 15.5927 13.8496L15.4616 13.9839C14.2358 15.247 13.2499 16.7439 12.578 18.4012C11.9308 19.9974 11.5742 21.7422 11.5742 23.5698V25.8361H11.5754L11.5755 29.812C11.5755 29.9158 11.6596 30 11.7634 30C11.8152 30 11.8622 29.979 11.8963 29.9449V29.9454L14.8502 26.9901C15.2063 26.6339 15.4749 26.2371 15.6552 25.8016C15.8352 25.3668 15.9256 24.8965 15.9256 24.3928V14.0133V13.9711L15.9257 13.9711Z" fill="#120BD9"/>
<path d="M35 7.27216H38.8452V24.7503H35V7.27216Z" fill="#120BD9"/>
<path d="M42.7805 5H46.4759V24.7503H42.7805V5Z" fill="#120BD9"/>
<path d="M61.6963 16.985C61.6963 17.2181 61.6547 17.7424 61.5715 18.5581H52.7325C52.8158 19.8231 53.1154 20.8052 53.6314 21.5044C54.1641 22.2035 54.8549 22.5531 55.7038 22.5531C56.0867 22.5531 56.4029 22.5031 56.6526 22.4032C56.919 22.3034 57.1853 22.1286 57.4516 21.8789C57.7346 21.6126 58.1008 21.1881 58.5502 20.6055C58.6335 20.4723 58.8083 20.4057 59.0746 20.4057C59.3576 20.4057 59.6988 20.5056 60.0983 20.7054C60.5145 20.8885 60.9556 21.1548 61.4217 21.5044C60.3397 23.8348 58.4337 25 55.7038 25C53.6064 25 51.9585 24.3675 50.76 23.1024C49.5615 21.8206 48.9622 20.0728 48.9622 17.8589C48.9622 16.4107 49.2286 15.154 49.7612 14.0886C50.3105 13.0233 51.0846 12.2077 52.0833 11.6417C53.0987 11.0591 54.2972 10.7678 55.6788 10.7678C57.5931 10.7678 59.0746 11.3088 60.1233 12.3908C61.172 13.4727 61.6963 15.0042 61.6963 16.985ZM57.951 16.4607C57.951 14.2301 57.1686 13.1149 55.6039 13.1149C54.8049 13.1149 54.1641 13.3978 53.6813 13.9638C53.1986 14.5298 52.899 15.362 52.7825 16.4607H57.951Z" fill="#120BD9"/>
<path d="M70.8368 10.8427C71.6358 10.8427 72.2185 11.0175 72.5847 11.367C72.9509 11.7 73.134 12.2409 73.134 12.99C73.134 13.273 73.0924 13.556 73.0091 13.839C72.9425 14.1053 72.8427 14.3134 72.7095 14.4632C72.5098 14.3466 72.285 14.2634 72.0353 14.2135C71.7857 14.1635 71.4278 14.1386 70.9617 14.1386C69.8797 14.1386 69.0724 14.4715 68.5397 15.1373C68.0237 15.8032 67.7657 16.8186 67.7657 18.1835V24.7503H64.0703V11.0175H67.7657V12.8402C68.0986 12.191 68.5314 11.7 69.0641 11.367C69.5967 11.0175 70.1877 10.8427 70.8368 10.8427Z" fill="#120BD9"/>
<path d="M86.0785 19.5818C86.0785 20.9467 86.1285 21.9288 86.2283 22.5281C86.3449 23.1273 86.5696 23.6434 86.9025 24.0762C86.5529 24.3258 86.1035 24.5339 85.5542 24.7004C85.0049 24.8502 84.5055 24.9251 84.0561 24.9251C83.6399 24.9251 83.307 24.7753 83.0573 24.4757C82.8076 24.176 82.6245 23.7016 82.508 23.0524C82.0586 23.7516 81.5259 24.2509 80.91 24.5506C80.2941 24.8502 79.4951 25 78.513 25C77.2978 25 76.3157 24.6754 75.5667 24.0262C74.8176 23.3604 74.4431 22.4948 74.4431 21.4295C74.4431 19.9313 75.0673 18.8161 76.3157 18.0836C77.5808 17.3346 79.6033 16.8851 82.3832 16.7353V15.437C82.3832 14.7545 82.2 14.2468 81.8338 13.9139C81.4843 13.5809 80.9433 13.4145 80.2109 13.4145C79.6782 13.4145 79.1455 13.5227 78.6129 13.7391C78.0968 13.9388 77.456 14.2967 76.6903 14.8127C76.607 14.8793 76.4905 14.9126 76.3407 14.9126C76.0411 14.9126 75.7165 14.7129 75.3669 14.3134C75.034 13.9139 74.7344 13.3895 74.468 12.7403C75.1172 12.1744 76.0244 11.7083 77.1896 11.3421C78.3715 10.9592 79.5367 10.7678 80.6853 10.7678C82.4164 10.7678 83.7481 11.1756 84.6803 11.9913C85.6124 12.7903 86.0785 13.9388 86.0785 15.437V19.5818ZM79.8114 22.603C80.3107 22.603 80.7685 22.4282 81.1846 22.0787C81.6174 21.7291 82.0169 21.1881 82.3832 20.4557V18.608C81.0015 18.6579 79.9529 18.891 79.2371 19.3071C78.538 19.7066 78.1884 20.2809 78.1884 21.03C78.1884 21.5127 78.3382 21.8955 78.6378 22.1785C78.9375 22.4615 79.3286 22.603 79.8114 22.603Z" fill="#120BD9"/>
</svg>
