<svg width="100" height="101" viewBox="0 0 100 101" fill="none" xmlns="http://www.w3.org/2000/svg">
<path d="M53.8915 77.5449H5.78774V36.6267H76.8456V54.491C77.8436 54.3912 78.7418 54.2914 79.7398 54.2914C80.7378 54.2914 81.636 54.3912 82.634 54.491V10.2794H60.5782V0H54.7897V10.2794H27.8436V0H22.0552V10.2794H-0.000686646V83.3333H53.8915C53.7917 82.3353 53.6919 81.4371 53.6919 80.4391C53.6919 79.4411 53.7917 78.4431 53.8915 77.5449ZM5.78774 16.0679H22.0552V23.0539H27.8436V16.0679H54.6899V23.0539H60.4784V16.0679H76.8456V30.8383H5.78774V16.0679Z" fill="#D3564A"/>
<path d="M79.7398 60.1796C68.5622 60.1796 59.4803 69.2615 59.4803 80.4391C59.4803 91.6168 68.5622 100.699 79.7398 100.699C90.9175 100.699 99.9993 91.6168 99.9993 80.4391C99.9993 69.2615 90.9175 60.1796 79.7398 60.1796ZM79.7398 94.9102C71.7558 94.9102 65.2688 88.4232 65.2688 80.4391C65.2688 72.4551 71.7558 65.9681 79.7398 65.9681C87.7239 65.9681 94.2109 72.4551 94.2109 80.4391C94.2109 88.4232 87.7239 94.9102 79.7398 94.9102Z" fill="#D3564A"/>
<path d="M82.634 71.8563H76.8456V77.5449H71.157V83.3333H76.8456V89.022H82.634V83.3333H88.3226V77.5449H82.634V71.8563Z" fill="#E5AC5B"/>
</svg>
