<svg width="100" height="89" viewBox="0 0 100 89" fill="none" xmlns="http://www.w3.org/2000/svg">
<path d="M96.1293 11.1587H88.533V2.56664C88.5331 2.22615 88.4653 1.88905 88.3338 1.57498C88.2023 1.26091 88.0096 0.97616 87.7669 0.737312C87.5242 0.498463 87.2365 0.310293 86.9203 0.183765C86.6042 0.0572367 86.2661 -0.00511941 85.9256 0.000328536H70.1069C62.6475 -0.00144312 55.4635 2.8186 49.9972 7.89431C44.5393 2.82496 37.3674 0.00531093 29.9184 0.000328536H14.0688C13.3882 0.000328536 12.7354 0.270707 12.2542 0.751985C11.7729 1.23326 11.5025 1.88601 11.5025 2.56664V11.1587H3.89594C2.86955 11.1587 1.8852 11.5664 1.15944 12.2922C0.433671 13.0179 0.0259399 14.0023 0.0259399 15.0287V60.1958C0.0259399 60.8764 0.296319 61.5292 0.777596 62.0105C1.25887 62.4918 1.91163 62.7621 2.59226 62.7621C3.27288 62.7621 3.92564 62.4918 4.40691 62.0105C4.88819 61.5292 5.15857 60.8764 5.15857 60.1958V16.2913H11.4922V26.2897C11.4922 26.9703 11.7626 27.623 12.2439 28.1043C12.7252 28.5856 13.3779 28.856 14.0586 28.856C14.7392 28.856 15.3919 28.5856 15.8732 28.1043C16.3545 27.623 16.6249 26.9703 16.6249 26.2897V5.13296H29.9697C33.2311 5.13677 36.4587 5.79465 39.4614 7.06768C42.4642 8.34071 45.1811 10.203 47.4514 12.5445V18.3957C47.4514 19.0763 47.7218 19.7291 48.2031 20.2103C48.6844 20.6916 49.3371 20.962 50.0178 20.962C50.6984 20.962 51.3511 20.6916 51.8324 20.2103C52.3137 19.7291 52.5841 19.0763 52.5841 18.3957V12.5445C54.857 10.193 57.5795 8.32237 60.5897 7.04387C63.5999 5.76537 66.8364 5.10505 70.1069 5.10216H83.4517V61.7356H70.1069C65.9516 61.7375 61.8434 62.6162 58.0509 64.3143C54.2584 66.0124 50.8669 68.4918 48.0982 71.5903C47.8737 71.8417 47.701 72.1348 47.5898 72.453C47.4787 72.7712 47.4313 73.1081 47.4503 73.4446C47.4694 73.7811 47.5545 74.1105 47.7009 74.4141C47.8473 74.7177 48.052 74.9894 48.3035 75.2139C48.5549 75.4384 48.848 75.6111 49.1662 75.7222C49.4844 75.8334 49.8213 75.8808 50.1578 75.8617C50.4943 75.8427 50.8237 75.7575 51.1273 75.6111C51.4309 75.4647 51.7026 75.26 51.9271 75.0086C54.2144 72.4494 57.0159 70.4016 60.1485 68.9988C63.2812 67.5961 66.6745 66.8701 70.1069 66.8682H85.9256C86.6063 66.8682 87.259 66.5979 87.7403 66.1166C88.2216 65.6353 88.492 64.9826 88.492 64.3019V16.2913H94.8256V74.29H70.8254C67.9662 74.2912 65.1394 74.8962 62.5301 76.0655C59.9208 77.2348 57.588 78.942 55.6842 81.0754L55.4789 81.2909C55.2017 81.5735 54.9031 81.8344 54.5858 82.0711L54.206 82.3483C53.9199 82.5358 53.6216 82.7039 53.3129 82.8512L53.1076 82.9436L52.697 83.1181C52.4649 83.2025 52.2284 83.2744 51.9887 83.3337C51.8552 83.3337 51.6807 83.4158 51.4652 83.4569C51.1264 83.5244 50.7834 83.569 50.4386 83.5903C49.802 83.6296 49.163 83.5812 48.5396 83.4466L48.0366 83.3234C47.7822 83.2601 47.5319 83.1812 47.2872 83.0874L46.9177 82.9128L46.7739 82.841C46.4359 82.68 46.11 82.4947 45.7987 82.2867L45.5216 82.0916C45.1532 81.814 44.8098 81.5049 44.495 81.1677L44.3821 81.0446C42.4914 78.9021 40.1635 77.1897 37.5552 76.0228C34.9469 74.8559 32.1188 74.2615 29.2614 74.2798H25.0424C24.3618 74.2798 23.709 74.5501 23.2277 75.0314C22.7464 75.5127 22.4761 76.1654 22.4761 76.8461C22.4761 77.5267 22.7464 78.1795 23.2277 78.6607C23.709 79.142 24.3618 79.4124 25.0424 79.4124H29.1998C31.3311 79.389 33.4425 79.8242 35.3907 80.6885C37.339 81.5529 39.0786 82.8261 40.4916 84.4218L40.6764 84.6271L40.8098 84.7709C41.3096 85.2942 41.8521 85.7749 42.4317 86.208L42.9347 86.557C43.4429 86.8956 43.9747 87.1975 44.5258 87.4604L44.7312 87.563L45.3573 87.8402L45.5216 87.9018C45.9074 88.0482 46.3016 88.1716 46.7021 88.2713C46.9177 88.3329 47.2051 88.4048 47.5233 88.4663C48.351 88.6356 49.1935 88.7216 50.0383 88.723H50.7671C51.3359 88.6893 51.9018 88.6173 52.4609 88.5074C52.851 88.4356 53.1795 88.3432 53.354 88.2918C53.7433 88.1926 54.1271 88.0727 54.5037 87.9326C54.7808 87.8299 55.0477 87.717 55.2736 87.6041L55.5713 87.4604C56.0677 87.2182 56.5478 86.9439 57.0084 86.6391C57.224 86.4954 57.4395 86.3517 57.6449 86.1875C58.1629 85.7977 58.6502 85.3688 59.1025 84.9043L59.4926 84.4937C60.9131 82.9036 62.653 81.631 64.5987 80.7589C66.5444 79.8869 68.6522 79.4351 70.7844 79.4329H96.1293C97.1557 79.4329 98.14 79.0252 98.8658 78.2994C99.5916 77.5737 99.9993 76.5893 99.9993 75.5629V14.9979C99.9912 13.9768 99.5799 13.0004 98.855 12.2813C98.1301 11.5621 97.1504 11.1586 96.1293 11.1587Z" fill="#120BD9"/>
<path d="M2.04887 80.5108C3.36334 81.8228 5.14466 82.5596 7.00186 82.5596C8.85905 82.5596 10.6404 81.8228 11.9548 80.5108L26.8189 65.6467C31.6855 68.1511 37.2868 68.8342 42.6126 67.5727C47.9385 66.3111 52.6382 63.188 55.8642 58.7666C59.0902 54.3452 60.6301 48.9166 60.2062 43.4598C59.7823 38.0031 57.4225 32.8774 53.5524 29.0073C49.6822 25.1371 44.5565 22.7773 39.0998 22.3534C33.643 21.9295 28.2144 23.4694 23.793 26.6954C19.3716 29.9214 16.2485 34.6212 14.987 39.947C13.7254 45.2728 14.4085 50.8741 16.913 55.7407L2.04887 70.6048C0.736868 71.9193 0 73.7006 0 75.5578C0 77.415 0.736868 79.1963 2.04887 80.5108ZM24.7146 32.6439C27.6278 29.7299 31.4612 27.9161 35.5618 27.5116C39.6623 27.1072 43.7762 28.137 47.2026 30.4257C50.629 32.7143 53.1558 36.1202 54.3525 40.0631C55.5493 44.0059 55.3419 48.2417 53.7657 52.0488C52.1895 55.8558 49.342 58.9986 45.7085 60.9416C42.0749 62.8846 37.88 63.5076 33.8386 62.7045C29.7972 61.9014 26.1593 59.7218 23.5447 56.5371C20.9301 53.3525 19.5006 49.3598 19.4998 45.2393C19.4966 42.8999 19.9556 40.5828 20.8505 38.4213C21.7454 36.2598 23.0586 34.2963 24.7146 32.6439ZM5.67251 74.2284L19.8283 60.0726C20.2286 60.5448 20.6393 61.017 21.0909 61.4584C21.5426 61.8998 22.0045 62.3207 22.4767 62.7211L8.32094 76.8769C7.96149 77.1838 7.49954 77.3439 7.02726 77.3253C6.55497 77.3067 6.10705 77.1108 5.77283 76.7765C5.43861 76.4423 5.24266 75.9944 5.22407 75.5221C5.20548 75.0498 5.3656 74.5879 5.67251 74.2284Z" fill="#120BD9"/>
<path d="M29.529 47.6004C30.9017 48.3931 32.0417 49.533 32.8344 50.9058C33.0502 51.2805 33.3572 51.5946 33.7269 51.8189C34.0966 52.0432 34.517 52.1705 34.949 52.1889H35.062C35.4752 52.1888 35.8824 52.0889 36.2488 51.8977C36.6152 51.7064 36.9299 51.4295 37.1663 51.0905C39.367 47.9213 42.1169 45.1714 45.2862 42.9707C45.5632 42.7779 45.7995 42.5325 45.9817 42.2484C46.1639 41.9643 46.2883 41.6471 46.3479 41.3149C46.4074 40.9827 46.401 40.642 46.3289 40.3123C46.2568 39.9826 46.1205 39.6703 45.9277 39.3933C45.735 39.1162 45.4895 38.8799 45.2054 38.6977C44.9213 38.5156 44.6041 38.3911 44.2719 38.3316C43.9397 38.272 43.599 38.2784 43.2693 38.3505C42.9396 38.4226 42.6273 38.5589 42.3503 38.7517C39.6321 40.634 37.1745 42.8672 35.0414 45.3933C34.1606 44.5098 33.1664 43.7469 32.085 43.1247C31.4959 42.7898 30.7982 42.7014 30.1442 42.879C29.4902 43.0565 28.933 43.4856 28.5941 44.0725C28.2553 44.6593 28.1623 45.3564 28.3356 46.0116C28.5088 46.6668 28.9341 47.2268 29.5187 47.5696L29.529 47.6004Z" fill="#FF4400"/>
</svg>
