<svg width="100" height="87" viewBox="0 0 100 87" fill="none" xmlns="http://www.w3.org/2000/svg">
<path d="M65.5452 43.1821C76.0775 43.1821 84.6466 32.9385 84.6466 20.3463C84.6466 8.36767 76.7913 0 65.5452 0C54.3013 0 46.446 8.36767 46.446 20.3463C46.4448 32.9385 55.0151 43.1821 65.5452 43.1821ZM65.5452 5.8222C73.489 5.8222 78.8244 11.6584 78.8244 20.3463C78.8244 29.7282 72.8683 37.3599 65.5452 37.3599C58.2243 37.3599 52.2682 29.727 52.2682 20.3463C52.2671 11.6572 57.6025 5.8222 65.5452 5.8222ZM99.98 72.3432C99.9299 69.2574 99.9113 68.4702 99.8752 68.1127C98.3125 53.7983 86.2815 45.9127 66.0016 45.9127C65.8724 45.9127 65.7443 45.9174 65.615 45.922L65.5452 45.9243L65.4741 45.922C65.3472 45.9174 65.2191 45.9127 65.0852 45.9127C44.8053 45.9127 32.7767 53.7971 31.2163 68.1116C31.1802 68.4481 31.1616 69.099 31.1162 71.9752L31.0894 73.6171C31.0894 73.6858 31.1034 73.7486 31.1057 73.8173C31.1127 73.9198 31.1173 74.0223 31.1325 74.1247C31.1464 74.2202 31.1709 74.3087 31.1965 74.4019C31.2198 74.4927 31.2419 74.5812 31.2734 74.6697C31.3048 74.7582 31.3467 74.842 31.3898 74.9294C31.4306 75.0132 31.469 75.0994 31.5191 75.1797C31.5691 75.2612 31.6239 75.3346 31.6809 75.4091C31.738 75.4837 31.7927 75.5617 31.8579 75.6315C31.9266 75.7061 32.0035 75.7724 32.0803 75.8411C32.1304 75.8865 32.1735 75.939 32.2282 75.9797C41.5985 83.1713 52.8039 86.8171 65.5393 86.8171H65.544C77.9255 86.8171 89.4057 83.0968 98.7538 76.0601C98.7585 76.0577 98.7608 76.0554 98.7631 76.0531C98.7899 76.0321 98.8179 76.0146 98.8447 75.9937C98.8994 75.9529 98.9425 75.9005 98.9925 75.8574C99.0717 75.7864 99.1544 75.7189 99.2266 75.6409C99.2906 75.5698 99.3454 75.4953 99.4013 75.4208C99.4571 75.3462 99.5154 75.2706 99.5654 75.1914C99.6155 75.1099 99.6539 75.0249 99.697 74.9387C99.7378 74.8549 99.7785 74.7722 99.8135 74.6837C99.8449 74.5929 99.8682 74.502 99.8926 74.4112C99.9159 74.3204 99.9427 74.2319 99.9567 74.1387C99.9753 74.0339 99.9777 73.9291 99.9835 73.8232C99.9858 73.7568 100.002 73.6916 99.9998 73.6229L99.98 72.3432ZM65.5452 80.9961H65.5405C54.6425 80.9961 45.0312 78.0396 36.9372 72.2174L36.9395 72.0672C36.9582 70.8527 36.9873 69.0152 37.0059 68.7427C38.536 54.6879 53.1218 51.7361 65.0864 51.7361L65.4823 51.7477C65.523 51.75 65.5684 51.75 65.6115 51.7477L66.0028 51.7361C77.9674 51.7361 92.5532 54.6879 94.0809 68.6775C94.1042 69.014 94.1357 70.9202 94.1554 72.2046C86.0253 77.9581 76.1707 80.9961 65.5452 80.9961Z" fill="#120BD9"/>
<path d="M20.2595 14C9.08184 14 0 23.0818 0 34.2595C0 45.4371 9.08184 54.519 20.2595 54.519C31.4371 54.519 40.519 45.4371 40.519 34.2595C40.519 23.0818 31.4371 14 20.2595 14ZM20.2595 48.7305C12.2755 48.7305 5.78843 42.2435 5.78843 34.2595C5.78843 26.2754 12.2755 19.7884 20.2595 19.7884C28.2435 19.7884 34.7305 26.2754 34.7305 34.2595C34.7305 42.2435 28.2435 48.7305 20.2595 48.7305Z" fill="#120BD9"/>
<path d="M23.1537 25.6767H17.3653V31.3653H11.6766V37.1537H17.3653V42.8423H23.1537V37.1537H28.8423V31.3653H23.1537V25.6767Z" fill="#FF4400"/>
</svg>
